Coordinates
version=1
nRows=32
nColumns=12
inDegrees=yes

Units are S.I. units (second, meters, Newtons, ...)
Angles are in degrees

endheader
time	SC_y	SC_z	SC_x	AC_y	AC_z	AC_x	GH_y	GH_z	GH_yy	EL_x	PS_y
       0.0              -32.17           10.8          37.62          30.44         -13.51          15.93          78.82          29.38         -41.29          60.95          49.06
  0.006648              -32.16           10.8          37.62          30.44          -13.5          15.93          78.83          29.38          -41.3          60.96          49.06
    0.0133              -32.16           10.8          37.62          30.44          -13.5          15.92          78.84          29.37          -41.3          60.97          49.07
   0.01994              -32.16           10.8          37.62          30.44          -13.5          15.92          78.85          29.36         -41.31          60.98          49.07
   0.02659              -32.15           10.8          37.62          30.45          -13.5          15.91          78.86          29.35         -41.32          60.99          49.08
   0.03324              -32.15           10.8          37.62          30.45         -13.49          15.91          78.87          29.35         -41.33           61.0          49.08
   0.03989              -32.14           10.8          37.62          30.45         -13.49           15.9          78.88          29.34         -41.34          61.01          49.08
   0.04653              -32.14           10.8          37.62          30.45         -13.49          15.89          78.89          29.33         -41.34          61.03          49.09
   0.05318              -32.13           10.8          37.62          30.45         -13.48          15.88          78.91          29.32         -41.35          61.04           49.1
   0.05983              -32.13           10.8          37.62          30.46         -13.48          15.88          78.92          29.31         -41.36          61.05           49.1
   0.06648              -32.12          10.79          37.62          30.46         -13.47          15.87          78.94           29.3         -41.38          61.07          49.11
   0.07312              -32.12          10.79          37.63          30.46         -13.47          15.86          78.95          29.28         -41.39          61.09          49.12
   0.07977              -32.11          10.79          37.63          30.46         -13.46          15.85          78.97          29.27          -41.4           61.1          49.12
   0.08642              -32.11          10.79          37.63          30.47         -13.46          15.84          78.99          29.25         -41.41          61.12          49.13
   0.09307               -32.1          10.79          37.63          30.47         -13.45          15.82          79.01          29.24         -41.43          61.14          49.14
   0.09972              -32.09          10.79          37.63          30.47         -13.45          15.81          79.03          29.22         -41.45          61.17          49.15
    0.1064              -32.08          10.79          37.63          30.48         -13.44           15.8          79.05           29.2         -41.46          61.19          49.16
     0.113              -32.07          10.79          37.63          30.48         -13.43          15.78          79.08          29.18         -41.48          61.22          49.17
    0.1197              -32.06          10.79          37.63          30.49         -13.42          15.76          79.11          29.16          -41.5          61.25          49.18
    0.1263              -32.05          10.79          37.63          30.49         -13.41          15.75          79.14          29.14         -41.53          61.28           49.2
     0.133              -32.04          10.79          37.63           30.5          -13.4          15.73          79.17          29.11         -41.55          61.32          49.21
    0.1396              -32.02          10.79          37.64           30.5         -13.39           15.7          79.21          29.08         -41.58          61.36          49.23
    0.1462              -32.01          10.79          37.64          30.51         -13.38          15.68          79.25          29.05         -41.61           61.4          49.25
    0.1529              -31.99          10.78          37.64          30.52         -13.37          15.65           79.3          29.01         -41.65          61.45          49.27
    0.1595              -31.97          10.78          37.64          30.53         -13.35          15.62          79.35          28.97         -41.68           61.5          49.29
    0.1662              -31.95          10.78          37.64          30.54         -13.33          15.59          79.41          28.93         -41.73          61.56          49.31
    0.1728              -31.93          10.78          37.65          30.55         -13.31          15.55          79.47          28.88         -41.77          61.63          49.34
    0.1795               -31.9          10.78          37.65          30.56         -13.29          15.51          79.54          28.82         -41.83           61.7          49.37
    0.1861              -31.88          10.78          37.65          30.57         -13.27          15.46          79.63          28.76         -41.89          61.78          49.41
    0.1928              -31.84          10.77          37.66          30.59         -13.24           15.4          79.72          28.68         -41.96          61.88          49.45
    0.1994               -31.8          10.77          37.66           30.6         -13.21          15.34          79.82           28.6         -42.04          61.99          49.49
    0.2061              -31.76          10.77          37.67          30.62         -13.17          15.27          79.94          28.51         -42.13          62.12          49.55
